<svg width="19" height="20" viewBox="0 0 19 20" fill="none" xmlns="http://www.w3.org/2000/svg">
<path d="M13.5012 5.04577C13.5012 2.81139 11.6899 1.00004 9.45547 1.00004C8.37952 0.995513 7.34607 1.41974 6.58365 2.17895C5.82122 2.93816 5.39263 3.96981 5.39263 5.04577M13.3726 19H5.55549C2.68407 19 0.481225 17.9629 1.10694 13.7886L1.8355 8.13147C2.22122 6.04862 3.54978 5.25148 4.71549 5.25148H14.2469C15.4297 5.25148 16.6812 6.10862 17.1269 8.13147L17.8554 13.7886C18.3869 17.4914 16.244 19 13.3726 19Z" stroke="#292929" stroke-width="1.5" stroke-linecap="round" stroke-linejoin="round"/>
<path d="M12.2335 9.2627H12.1914" stroke="#292929" stroke-width="1.5" stroke-linecap="round" stroke-linejoin="round"/>
<path d="M6.77354 9.2627H6.73047" stroke="#292929" stroke-width="1.5" stroke-linecap="round" stroke-linejoin="round"/>
</svg>
